<svg xmlns="http://www.w3.org/2000/svg" viewBox="0 0 3 2">
  <rect fill="#039" width="3" height="2"/>
  <g fill="#FC0" transform="translate(1.5,1)">
    <g id="star">
      <polygon points="0,-.3 .07,-.1 .29,-.1 .11,.04 .18,.26 0,.12 -.18,.26 -.11,.04 -.29,-.1 -.07,-.1"/>
    </g>
    <use href="#star" transform="rotate(0) translate(0,-.65)"/>
    <use href="#star" transform="rotate(30) translate(0,-.65)"/>
    <use href="#star" transform="rotate(60) translate(0,-.65)"/>
    <use href="#star" transform="rotate(90) translate(0,-.65)"/>
    <use href="#star" transform="rotate(120) translate(0,-.65)"/>
    <use href="#star" transform="rotate(150) translate(0,-.65)"/>
    <use href="#star" transform="rotate(180) translate(0,-.65)"/>
    <use href="#star" transform="rotate(210) translate(0,-.65)"/>
    <use href="#star" transform="rotate(240) translate(0,-.65)"/>
    <use href="#star" transform="rotate(270) translate(0,-.65)"/>
    <use href="#star" transform="rotate(300) translate(0,-.65)"/>
    <use href="#star" transform="rotate(330) translate(0,-.65)"/>
  </g>
</svg>
